<?xml version="1.0" encoding="UTF-8"?><svg id="_レイヤー_1" xmlns="http://www.w3.org/2000/svg" viewBox="0 0 1000 1000"><path d="m821.37,209.3c-15.12,6.98-30.23,18.6-41.86,27.91-5.81,4.65-134.88,130.23-159.3,154.65,51.16,25.58,69.77,34.88,69.77,60.47,0,8.14-11.63,43.02-12.79,50-5.81,37.21-5.81,93.02-5.81,112.79,0,43.02,9.3,229.07,9.3,267.44,0,104.65-58.14,117.44-80.23,117.44-43.02,0-104.65-59.3-104.65-112.79,0-17.44,15.12-94.19,16.28-110.46,3.49-47.67,5.81-202.33,5.81-237.21,0-31.4,0-38.37-3.49-62.79-129.07,91.86-295.35,179.07-417.44,203.49l-4.65-5.81c151.16-94.19,416.28-347.67,547.67-536.05,18.61-27.91,20.93-43.02,20.93-60.47,0-32.56-15.12-43.02-47.67-62.79,15.12-6.98,34.88-15.12,60.46-15.12,44.19,0,94.19,18.6,162.79,90.7,30.23,31.4,37.21,46.51,37.21,67.44,0,25.58-4.65,27.91-52.33,51.16Z"/></svg>