<?xml version="1.0" encoding="UTF-8"?><svg id="_レイヤー_1" xmlns="http://www.w3.org/2000/svg" viewBox="0 0 1000 1000"><path d="m725.9,280c-11.7,5.4-23.4,14.4-32.4,21.6-4.5,3.6-104.4,100.8-123.3,119.7,39.6,19.8,54,27,54,46.8,0,6.3-9,33.3-9.9,38.7-4.5,28.8-4.5,72-4.5,87.3,0,33.3,7.2,177.3,7.2,207,0,81-45,90.9-62.1,90.9-33.3,0-81-45.9-81-87.3,0-13.5,11.7-72.9,12.6-85.5,2.7-36.9,4.5-156.6,4.5-183.6,0-24.3,0-29.7-2.7-48.6-99.9,71.1-228.6,138.6-323.1,157.5l-3.6-4.5c117-72.9,322.2-269.1,423.9-414.9,14.4-21.6,16.2-33.3,16.2-46.8,0-25.2-11.7-33.3-36.9-48.6,11.7-5.4,27-11.7,46.8-11.7,34.2,0,72.9,14.4,126,70.2,23.4,24.3,28.8,36,28.8,52.2,0,19.8-3.6,21.6-40.5,39.6Z"/></svg>